<?xml version="1.0" encoding="UTF-8" standalone="no"?>
<!DOCTYPE svg PUBLIC "-//W3C//DTD SVG 1.1//EN" "http://www.w3.org/Graphics/SVG/1.1/DTD/svg11.dtd">
<svg xmlns:dc="http://purl.org/dc/elements/1.1/" xmlns:xl="http://www.w3.org/1999/xlink" xmlns="http://www.w3.org/2000/svg" version="1.1" viewBox="45.5 388.552 763.5 131.5402" width="763.5" height="131.5402">
  <defs/>
  <g id="Canvas_1" fill-opacity="1" stroke="none" stroke-opacity="1" stroke-dasharray="none" fill="none">
    <title>Canvas 1</title>
    <g id="Canvas_1_Layer_1">
      <title>Layer 1</title>
      <g id="Graphic_108">
        <rect x="616" y="466.6442" width="19" height="25" fill="white"/>
        <rect x="616" y="466.6442" width="19" height="25" stroke="gray" stroke-linecap="round" stroke-linejoin="round" stroke-width="1"/>
        <text transform="translate(621 469.92826)" fill="black">
          <tspan font-family="Helvetica Neue" font-size="16" fill="black" x=".34" y="15" xml:space="preserve">X</tspan>
        </text>
      </g>
      <g id="Graphic_109">
        <rect x="635" y="466.6442" width="19" height="25" fill="white"/>
        <rect x="635" y="466.6442" width="19" height="25" stroke="gray" stroke-linecap="round" stroke-linejoin="round" stroke-width="1"/>
        <text transform="translate(640 469.92826)" fill="black">
          <tspan font-family="Helvetica Neue" font-size="16" fill="black" x=".34" y="15" xml:space="preserve">X</tspan>
        </text>
      </g>
      <g id="Graphic_110">
        <rect x="654" y="466.6442" width="19" height="25" fill="white"/>
        <rect x="654" y="466.6442" width="19" height="25" stroke="gray" stroke-linecap="round" stroke-linejoin="round" stroke-width="1"/>
        <text transform="translate(659 469.92826)" fill="black">
          <tspan font-family="Helvetica Neue" font-size="16" fill="black" x=".34" y="15" xml:space="preserve">X</tspan>
        </text>
      </g>
      <g id="Graphic_111">
        <rect x="673" y="466.6442" width="19" height="25" fill="white"/>
        <rect x="673" y="466.6442" width="19" height="25" stroke="gray" stroke-linecap="round" stroke-linejoin="round" stroke-width="1"/>
        <text transform="translate(678 469.92826)" fill="black">
          <tspan font-family="Helvetica Neue" font-size="16" fill="black" x=".34" y="15" xml:space="preserve">X</tspan>
        </text>
      </g>
      <g id="Graphic_36">
        <rect x="198" y="417" width="19" height="25" fill="#c0ffc0"/>
        <rect x="198" y="417" width="19" height="25" stroke="gray" stroke-linecap="round" stroke-linejoin="round" stroke-width="1"/>
        <text transform="translate(203 420.276)" fill="black">
          <tspan font-family="Helvetica Neue" font-size="16" fill="black" x=".052" y="15" xml:space="preserve">0</tspan>
        </text>
      </g>
      <g id="Graphic_37">
        <rect x="217" y="417" width="19" height="25" fill="#c0ffc0"/>
        <rect x="217" y="417" width="19" height="25" stroke="gray" stroke-linecap="round" stroke-linejoin="round" stroke-width="1"/>
        <text transform="translate(222 420.276)" fill="black">
          <tspan font-family="Helvetica Neue" font-size="16" fill="black" x=".052" y="15" xml:space="preserve">1</tspan>
        </text>
      </g>
      <g id="Graphic_38">
        <rect x="236" y="417" width="19" height="25" fill="#80ff80"/>
        <rect x="236" y="417" width="19" height="25" stroke="gray" stroke-linecap="round" stroke-linejoin="round" stroke-width="1"/>
        <text transform="translate(241 420.276)" fill="black">
          <tspan font-family="Helvetica Neue" font-size="16" fill="black" x=".052" y="15" xml:space="preserve">2</tspan>
        </text>
      </g>
      <g id="Graphic_39">
        <rect x="255" y="417" width="19" height="25" fill="#80ff80"/>
        <rect x="255" y="417" width="19" height="25" stroke="gray" stroke-linecap="round" stroke-linejoin="round" stroke-width="1"/>
        <text transform="translate(260 420.276)" fill="black">
          <tspan font-family="Helvetica Neue" font-size="16" fill="black" x=".052" y="15" xml:space="preserve">3</tspan>
        </text>
      </g>
      <g id="Graphic_43">
        <rect x="274" y="417" width="19" height="25" fill="#80ff80"/>
        <rect x="274" y="417" width="19" height="25" stroke="gray" stroke-linecap="round" stroke-linejoin="round" stroke-width="1"/>
        <text transform="translate(279 420.276)" fill="black">
          <tspan font-family="Helvetica Neue" font-size="16" fill="black" x=".052" y="15" xml:space="preserve">4</tspan>
        </text>
      </g>
      <g id="Graphic_42">
        <rect x="293" y="417" width="19" height="25" fill="#80ff80"/>
        <rect x="293" y="417" width="19" height="25" stroke="gray" stroke-linecap="round" stroke-linejoin="round" stroke-width="1"/>
        <text transform="translate(298 420.276)" fill="black">
          <tspan font-family="Helvetica Neue" font-size="16" fill="black" x=".052" y="15" xml:space="preserve">5</tspan>
        </text>
      </g>
      <g id="Graphic_41">
        <rect x="312" y="417" width="19" height="25" fill="#80ff80"/>
        <rect x="312" y="417" width="19" height="25" stroke="gray" stroke-linecap="round" stroke-linejoin="round" stroke-width="1"/>
        <text transform="translate(317 420.276)" fill="black">
          <tspan font-family="Helvetica Neue" font-size="16" fill="black" x=".052" y="15" xml:space="preserve">6</tspan>
        </text>
      </g>
      <g id="Graphic_40">
        <rect x="331" y="417" width="19" height="25" fill="#80ff80"/>
        <rect x="331" y="417" width="19" height="25" stroke="gray" stroke-linecap="round" stroke-linejoin="round" stroke-width="1"/>
        <text transform="translate(336 420.276)" fill="black">
          <tspan font-family="Helvetica Neue" font-size="16" fill="black" x=".052" y="15" xml:space="preserve">7</tspan>
        </text>
      </g>
      <g id="Graphic_51">
        <rect x="350" y="417" width="19" height="25" fill="#80ff80"/>
        <rect x="350" y="417" width="19" height="25" stroke="gray" stroke-linecap="round" stroke-linejoin="round" stroke-width="1"/>
        <text transform="translate(355 420.276)" fill="black">
          <tspan font-family="Helvetica Neue" font-size="16" fill="black" x=".052" y="15" xml:space="preserve">0</tspan>
        </text>
      </g>
      <g id="Graphic_50">
        <rect x="369" y="417" width="19" height="25" fill="#80ff80"/>
        <rect x="369" y="417" width="19" height="25" stroke="gray" stroke-linecap="round" stroke-linejoin="round" stroke-width="1"/>
        <text transform="translate(374 420.276)" fill="black">
          <tspan font-family="Helvetica Neue" font-size="16" fill="black" x=".052" y="15" xml:space="preserve">1</tspan>
        </text>
      </g>
      <g id="Graphic_49">
        <rect x="388" y="417" width="19" height="25" fill="#80ff80"/>
        <rect x="388" y="417" width="19" height="25" stroke="gray" stroke-linecap="round" stroke-linejoin="round" stroke-width="1"/>
        <text transform="translate(393 420.276)" fill="black">
          <tspan font-family="Helvetica Neue" font-size="16" fill="black" x=".052" y="15" xml:space="preserve">2</tspan>
        </text>
      </g>
      <g id="Graphic_48">
        <rect x="407" y="417" width="19" height="25" fill="#80ff80"/>
        <rect x="407" y="417" width="19" height="25" stroke="gray" stroke-linecap="round" stroke-linejoin="round" stroke-width="1"/>
        <text transform="translate(412 420.276)" fill="black">
          <tspan font-family="Helvetica Neue" font-size="16" fill="black" x=".052" y="15" xml:space="preserve">3</tspan>
        </text>
      </g>
      <g id="Graphic_47">
        <rect x="426" y="417" width="19" height="25" fill="#80ff80"/>
        <rect x="426" y="417" width="19" height="25" stroke="gray" stroke-linecap="round" stroke-linejoin="round" stroke-width="1"/>
        <text transform="translate(431 420.276)" fill="black">
          <tspan font-family="Helvetica Neue" font-size="16" fill="black" x=".052" y="15" xml:space="preserve">4</tspan>
        </text>
      </g>
      <g id="Graphic_46">
        <rect x="445" y="417" width="19" height="25" fill="#80ff80"/>
        <rect x="445" y="417" width="19" height="25" stroke="gray" stroke-linecap="round" stroke-linejoin="round" stroke-width="1"/>
        <text transform="translate(450 420.276)" fill="black">
          <tspan font-family="Helvetica Neue" font-size="16" fill="black" x=".052" y="15" xml:space="preserve">5</tspan>
        </text>
      </g>
      <g id="Graphic_45">
        <rect x="464" y="417" width="19" height="25" fill="#80ff80"/>
        <rect x="464" y="417" width="19" height="25" stroke="gray" stroke-linecap="round" stroke-linejoin="round" stroke-width="1"/>
        <text transform="translate(469 420.276)" fill="black">
          <tspan font-family="Helvetica Neue" font-size="16" fill="black" x=".052" y="15" xml:space="preserve">6</tspan>
        </text>
      </g>
      <g id="Graphic_44">
        <rect x="483" y="417" width="19" height="25" fill="#80ff80"/>
        <rect x="483" y="417" width="19" height="25" stroke="gray" stroke-linecap="round" stroke-linejoin="round" stroke-width="1"/>
        <text transform="translate(488 420.276)" fill="black">
          <tspan font-family="Helvetica Neue" font-size="16" fill="black" x=".052" y="15" xml:space="preserve">7</tspan>
        </text>
      </g>
      <g id="Graphic_59">
        <rect x="502" y="417" width="19" height="25" fill="#80ff80"/>
        <rect x="502" y="417" width="19" height="25" stroke="gray" stroke-linecap="round" stroke-linejoin="round" stroke-width="1"/>
        <text transform="translate(507 420.276)" fill="black">
          <tspan font-family="Helvetica Neue" font-size="16" fill="black" x=".052" y="15" xml:space="preserve">0</tspan>
        </text>
      </g>
      <g id="Graphic_58">
        <rect x="521" y="417" width="19" height="25" fill="#80ff80"/>
        <rect x="521" y="417" width="19" height="25" stroke="gray" stroke-linecap="round" stroke-linejoin="round" stroke-width="1"/>
        <text transform="translate(526 420.276)" fill="black">
          <tspan font-family="Helvetica Neue" font-size="16" fill="black" x=".052" y="15" xml:space="preserve">1</tspan>
        </text>
      </g>
      <g id="Graphic_57">
        <rect x="540" y="417" width="19" height="25" fill="#80ff80"/>
        <rect x="540" y="417" width="19" height="25" stroke="gray" stroke-linecap="round" stroke-linejoin="round" stroke-width="1"/>
        <text transform="translate(545 420.276)" fill="black">
          <tspan font-family="Helvetica Neue" font-size="16" fill="black" x=".052" y="15" xml:space="preserve">2</tspan>
        </text>
      </g>
      <g id="Graphic_56">
        <rect x="559" y="417" width="19" height="25" fill="#80ff80"/>
        <rect x="559" y="417" width="19" height="25" stroke="gray" stroke-linecap="round" stroke-linejoin="round" stroke-width="1"/>
        <text transform="translate(564 420.276)" fill="black">
          <tspan font-family="Helvetica Neue" font-size="16" fill="black" x=".052" y="15" xml:space="preserve">3</tspan>
        </text>
      </g>
      <g id="Graphic_55">
        <rect x="578" y="417" width="19" height="25" fill="#80ff80"/>
        <rect x="578" y="417" width="19" height="25" stroke="gray" stroke-linecap="round" stroke-linejoin="round" stroke-width="1"/>
        <text transform="translate(583 420.276)" fill="black">
          <tspan font-family="Helvetica Neue" font-size="16" fill="black" x=".052" y="15" xml:space="preserve">4</tspan>
        </text>
      </g>
      <g id="Graphic_54">
        <rect x="597" y="417" width="19" height="25" fill="#80ff80"/>
        <rect x="597" y="417" width="19" height="25" stroke="gray" stroke-linecap="round" stroke-linejoin="round" stroke-width="1"/>
        <text transform="translate(602 420.276)" fill="black">
          <tspan font-family="Helvetica Neue" font-size="16" fill="black" x=".052" y="15" xml:space="preserve">5</tspan>
        </text>
      </g>
      <g id="Graphic_53">
        <rect x="616" y="417" width="19" height="25" fill="#c0ffc0"/>
        <rect x="616" y="417" width="19" height="25" stroke="gray" stroke-linecap="round" stroke-linejoin="round" stroke-width="1"/>
        <text transform="translate(621 420.276)" fill="black">
          <tspan font-family="Helvetica Neue" font-size="16" fill="black" x=".052" y="15" xml:space="preserve">6</tspan>
        </text>
      </g>
      <g id="Graphic_52">
        <rect x="635" y="417" width="19" height="25" fill="#c0ffc0"/>
        <rect x="635" y="417" width="19" height="25" stroke="gray" stroke-linecap="round" stroke-linejoin="round" stroke-width="1"/>
        <text transform="translate(640 420.276)" fill="black">
          <tspan font-family="Helvetica Neue" font-size="16" fill="black" x=".052" y="15" xml:space="preserve">7</tspan>
        </text>
      </g>
      <g id="Graphic_67">
        <rect x="654" y="417" width="19" height="25" fill="#c0ffc0"/>
        <rect x="654" y="417" width="19" height="25" stroke="gray" stroke-linecap="round" stroke-linejoin="round" stroke-width="1"/>
        <text transform="translate(659 420.276)" fill="black">
          <tspan font-family="Helvetica Neue" font-size="16" fill="black" x=".052" y="15" xml:space="preserve">0</tspan>
        </text>
      </g>
      <g id="Graphic_66">
        <rect x="673" y="417" width="19" height="25" fill="#c0ffc0"/>
        <rect x="673" y="417" width="19" height="25" stroke="gray" stroke-linecap="round" stroke-linejoin="round" stroke-width="1"/>
        <text transform="translate(678 420.276)" fill="black">
          <tspan font-family="Helvetica Neue" font-size="16" fill="black" x=".052" y="15" xml:space="preserve">1</tspan>
        </text>
      </g>
      <g id="Graphic_65">
        <rect x="692" y="417" width="19" height="25" fill="#c0ffc0"/>
        <rect x="692" y="417" width="19" height="25" stroke="gray" stroke-linecap="round" stroke-linejoin="round" stroke-width="1"/>
        <text transform="translate(697 420.276)" fill="black">
          <tspan font-family="Helvetica Neue" font-size="16" fill="black" x=".052" y="15" xml:space="preserve">2</tspan>
        </text>
      </g>
      <g id="Graphic_64">
        <rect x="711" y="417" width="19" height="25" fill="#c0ffc0"/>
        <rect x="711" y="417" width="19" height="25" stroke="gray" stroke-linecap="round" stroke-linejoin="round" stroke-width="1"/>
        <text transform="translate(716 420.276)" fill="black">
          <tspan font-family="Helvetica Neue" font-size="16" fill="black" x=".052" y="15" xml:space="preserve">3</tspan>
        </text>
      </g>
      <g id="Graphic_63">
        <rect x="730" y="417" width="19" height="25" fill="#c0ffc0"/>
        <rect x="730" y="417" width="19" height="25" stroke="gray" stroke-linecap="round" stroke-linejoin="round" stroke-width="1"/>
        <text transform="translate(735 420.276)" fill="black">
          <tspan font-family="Helvetica Neue" font-size="16" fill="black" x=".052" y="15" xml:space="preserve">4</tspan>
        </text>
      </g>
      <g id="Graphic_62">
        <rect x="749" y="417" width="19" height="25" fill="#c0ffc0"/>
        <rect x="749" y="417" width="19" height="25" stroke="gray" stroke-linecap="round" stroke-linejoin="round" stroke-width="1"/>
        <text transform="translate(754 420.276)" fill="black">
          <tspan font-family="Helvetica Neue" font-size="16" fill="black" x=".052" y="15" xml:space="preserve">5</tspan>
        </text>
      </g>
      <g id="Graphic_61">
        <rect x="768" y="417" width="19" height="25" fill="#c0ffc0"/>
        <rect x="768" y="417" width="19" height="25" stroke="gray" stroke-linecap="round" stroke-linejoin="round" stroke-width="1"/>
        <text transform="translate(773 420.276)" fill="black">
          <tspan font-family="Helvetica Neue" font-size="16" fill="black" x=".052" y="15" xml:space="preserve">6</tspan>
        </text>
      </g>
      <g id="Graphic_60">
        <rect x="787" y="417" width="19" height="25" fill="#c0ffc0"/>
        <rect x="787" y="417" width="19" height="25" stroke="gray" stroke-linecap="round" stroke-linejoin="round" stroke-width="1"/>
        <text transform="translate(792 420.276)" fill="black">
          <tspan font-family="Helvetica Neue" font-size="16" fill="black" x=".052" y="15" xml:space="preserve">7</tspan>
        </text>
      </g>
      <g id="Graphic_75">
        <rect x="46" y="417" width="19" height="25" fill="#c0ffc0"/>
        <rect x="46" y="417" width="19" height="25" stroke="gray" stroke-linecap="round" stroke-linejoin="round" stroke-width="1"/>
        <text transform="translate(51 420.276)" fill="black">
          <tspan font-family="Helvetica Neue" font-size="16" fill="black" x=".052" y="15" xml:space="preserve">0</tspan>
        </text>
      </g>
      <g id="Graphic_74">
        <rect x="65" y="417" width="19" height="25" fill="#c0ffc0"/>
        <rect x="65" y="417" width="19" height="25" stroke="gray" stroke-linecap="round" stroke-linejoin="round" stroke-width="1"/>
        <text transform="translate(70 420.276)" fill="black">
          <tspan font-family="Helvetica Neue" font-size="16" fill="black" x=".052" y="15" xml:space="preserve">1</tspan>
        </text>
      </g>
      <g id="Graphic_73">
        <rect x="84" y="417" width="19" height="25" fill="#c0ffc0"/>
        <rect x="84" y="417" width="19" height="25" stroke="gray" stroke-linecap="round" stroke-linejoin="round" stroke-width="1"/>
        <text transform="translate(89 420.276)" fill="black">
          <tspan font-family="Helvetica Neue" font-size="16" fill="black" x=".052" y="15" xml:space="preserve">2</tspan>
        </text>
      </g>
      <g id="Graphic_72">
        <rect x="103" y="417" width="19" height="25" fill="#c0ffc0"/>
        <rect x="103" y="417" width="19" height="25" stroke="gray" stroke-linecap="round" stroke-linejoin="round" stroke-width="1"/>
        <text transform="translate(108 420.276)" fill="black">
          <tspan font-family="Helvetica Neue" font-size="16" fill="black" x=".052" y="15" xml:space="preserve">3</tspan>
        </text>
      </g>
      <g id="Graphic_71">
        <rect x="122" y="417" width="19" height="25" fill="#c0ffc0"/>
        <rect x="122" y="417" width="19" height="25" stroke="gray" stroke-linecap="round" stroke-linejoin="round" stroke-width="1"/>
        <text transform="translate(127 420.276)" fill="black">
          <tspan font-family="Helvetica Neue" font-size="16" fill="black" x=".052" y="15" xml:space="preserve">4</tspan>
        </text>
      </g>
      <g id="Graphic_70">
        <rect x="141" y="417" width="19" height="25" fill="#c0ffc0"/>
        <rect x="141" y="417" width="19" height="25" stroke="gray" stroke-linecap="round" stroke-linejoin="round" stroke-width="1"/>
        <text transform="translate(146 420.276)" fill="black">
          <tspan font-family="Helvetica Neue" font-size="16" fill="black" x=".052" y="15" xml:space="preserve">5</tspan>
        </text>
      </g>
      <g id="Graphic_69">
        <rect x="160" y="417" width="19" height="25" fill="#c0ffc0"/>
        <rect x="160" y="417" width="19" height="25" stroke="gray" stroke-linecap="round" stroke-linejoin="round" stroke-width="1"/>
        <text transform="translate(165 420.276)" fill="black">
          <tspan font-family="Helvetica Neue" font-size="16" fill="black" x=".052" y="15" xml:space="preserve">6</tspan>
        </text>
      </g>
      <g id="Graphic_68">
        <rect x="179" y="417" width="19" height="25" fill="#c0ffc0"/>
        <rect x="179" y="417" width="19" height="25" stroke="gray" stroke-linecap="round" stroke-linejoin="round" stroke-width="1"/>
        <text transform="translate(184 420.276)" fill="black">
          <tspan font-family="Helvetica Neue" font-size="16" fill="black" x=".052" y="15" xml:space="preserve">7</tspan>
        </text>
      </g>
      <g id="Graphic_84">
        <rect x="236" y="466.6442" width="19" height="25" fill="#c0c0ff"/>
        <rect x="236" y="466.6442" width="19" height="25" stroke="black" stroke-linecap="round" stroke-linejoin="round" stroke-width="1"/>
        <text transform="translate(241 469.9202)" fill="black">
          <tspan font-family="Helvetica Neue" font-size="16" fill="black" x=".052" y="15" xml:space="preserve">0</tspan>
        </text>
      </g>
      <g id="Graphic_83">
        <rect x="255" y="466.6442" width="19" height="25" fill="#c0c0ff"/>
        <rect x="255" y="466.6442" width="19" height="25" stroke="black" stroke-linecap="round" stroke-linejoin="round" stroke-width="1"/>
        <text transform="translate(260 469.9202)" fill="black">
          <tspan font-family="Helvetica Neue" font-size="16" fill="black" x=".052" y="15" xml:space="preserve">1</tspan>
        </text>
      </g>
      <g id="Graphic_82">
        <rect x="274" y="466.6442" width="19" height="25" fill="#c0c0ff"/>
        <rect x="274" y="466.6442" width="19" height="25" stroke="black" stroke-linecap="round" stroke-linejoin="round" stroke-width="1"/>
        <text transform="translate(279 469.9202)" fill="black">
          <tspan font-family="Helvetica Neue" font-size="16" fill="black" x=".052" y="15" xml:space="preserve">2</tspan>
        </text>
      </g>
      <g id="Graphic_81">
        <rect x="293" y="466.6442" width="19" height="25" fill="#c0c0ff"/>
        <rect x="293" y="466.6442" width="19" height="25" stroke="black" stroke-linecap="round" stroke-linejoin="round" stroke-width="1"/>
        <text transform="translate(298 469.9202)" fill="black">
          <tspan font-family="Helvetica Neue" font-size="16" fill="black" x=".052" y="15" xml:space="preserve">3</tspan>
        </text>
      </g>
      <g id="Graphic_80">
        <rect x="312" y="466.6442" width="19" height="25" fill="#c0c0ff"/>
        <rect x="312" y="466.6442" width="19" height="25" stroke="black" stroke-linecap="round" stroke-linejoin="round" stroke-width="1"/>
        <text transform="translate(317 469.9202)" fill="black">
          <tspan font-family="Helvetica Neue" font-size="16" fill="black" x=".052" y="15" xml:space="preserve">4</tspan>
        </text>
      </g>
      <g id="Graphic_79">
        <rect x="331" y="466.6442" width="19" height="25" fill="#c0c0ff"/>
        <rect x="331" y="466.6442" width="19" height="25" stroke="black" stroke-linecap="round" stroke-linejoin="round" stroke-width="1"/>
        <text transform="translate(336 469.9202)" fill="black">
          <tspan font-family="Helvetica Neue" font-size="16" fill="black" x=".052" y="15" xml:space="preserve">5</tspan>
        </text>
      </g>
      <g id="Graphic_78">
        <rect x="350" y="466.6442" width="19" height="25" fill="#c0c0ff"/>
        <rect x="350" y="466.6442" width="19" height="25" stroke="black" stroke-linecap="round" stroke-linejoin="round" stroke-width="1"/>
        <text transform="translate(355 469.9202)" fill="black">
          <tspan font-family="Helvetica Neue" font-size="16" fill="black" x=".052" y="15" xml:space="preserve">6</tspan>
        </text>
      </g>
      <g id="Graphic_77">
        <rect x="369" y="466.6442" width="19" height="25" fill="#c0c0ff"/>
        <rect x="369" y="466.6442" width="19" height="25" stroke="black" stroke-linecap="round" stroke-linejoin="round" stroke-width="1"/>
        <text transform="translate(374 469.9202)" fill="black">
          <tspan font-family="Helvetica Neue" font-size="16" fill="black" x=".052" y="15" xml:space="preserve">7</tspan>
        </text>
      </g>
      <g id="Graphic_92">
        <rect x="388" y="466.6442" width="19" height="25" fill="#c0c0ff"/>
        <rect x="388" y="466.6442" width="19" height="25" stroke="gray" stroke-linecap="round" stroke-linejoin="round" stroke-width="1"/>
        <text transform="translate(393 469.9202)" fill="black">
          <tspan font-family="Helvetica Neue" font-size="16" fill="black" x=".052" y="15" xml:space="preserve">0</tspan>
        </text>
      </g>
      <g id="Graphic_91">
        <rect x="407" y="466.6442" width="19" height="25" fill="#c0c0ff"/>
        <rect x="407" y="466.6442" width="19" height="25" stroke="gray" stroke-linecap="round" stroke-linejoin="round" stroke-width="1"/>
        <text transform="translate(412 469.9202)" fill="black">
          <tspan font-family="Helvetica Neue" font-size="16" fill="black" x=".052" y="15" xml:space="preserve">1</tspan>
        </text>
      </g>
      <g id="Graphic_90">
        <rect x="426" y="466.6442" width="19" height="25" fill="#c0c0ff"/>
        <rect x="426" y="466.6442" width="19" height="25" stroke="gray" stroke-linecap="round" stroke-linejoin="round" stroke-width="1"/>
        <text transform="translate(431 469.9202)" fill="black">
          <tspan font-family="Helvetica Neue" font-size="16" fill="black" x=".052" y="15" xml:space="preserve">2</tspan>
        </text>
      </g>
      <g id="Graphic_89">
        <rect x="445" y="466.6442" width="19" height="25" fill="#c0c0ff"/>
        <rect x="445" y="466.6442" width="19" height="25" stroke="gray" stroke-linecap="round" stroke-linejoin="round" stroke-width="1"/>
        <text transform="translate(450 469.9202)" fill="black">
          <tspan font-family="Helvetica Neue" font-size="16" fill="black" x=".052" y="15" xml:space="preserve">3</tspan>
        </text>
      </g>
      <g id="Graphic_88">
        <rect x="464" y="466.6442" width="19" height="25" fill="#c0c0ff"/>
        <rect x="464" y="466.6442" width="19" height="25" stroke="gray" stroke-linecap="round" stroke-linejoin="round" stroke-width="1"/>
        <text transform="translate(469 469.9202)" fill="black">
          <tspan font-family="Helvetica Neue" font-size="16" fill="black" x=".052" y="15" xml:space="preserve">4</tspan>
        </text>
      </g>
      <g id="Graphic_87">
        <rect x="483" y="466.6442" width="19" height="25" fill="#c0c0ff"/>
        <rect x="483" y="466.6442" width="19" height="25" stroke="gray" stroke-linecap="round" stroke-linejoin="round" stroke-width="1"/>
        <text transform="translate(488 469.9202)" fill="black">
          <tspan font-family="Helvetica Neue" font-size="16" fill="black" x=".052" y="15" xml:space="preserve">5</tspan>
        </text>
      </g>
      <g id="Graphic_86">
        <rect x="502" y="466.6442" width="19" height="25" fill="#c0c0ff"/>
        <rect x="502" y="466.6442" width="19" height="25" stroke="gray" stroke-linecap="round" stroke-linejoin="round" stroke-width="1"/>
        <text transform="translate(507 469.9202)" fill="black">
          <tspan font-family="Helvetica Neue" font-size="16" fill="black" x=".052" y="15" xml:space="preserve">6</tspan>
        </text>
      </g>
      <g id="Graphic_85">
        <rect x="521" y="466.6442" width="19" height="25" fill="#c0c0ff"/>
        <rect x="521" y="466.6442" width="19" height="25" stroke="gray" stroke-linecap="round" stroke-linejoin="round" stroke-width="1"/>
        <text transform="translate(526 469.9202)" fill="black">
          <tspan font-family="Helvetica Neue" font-size="16" fill="black" x=".052" y="15" xml:space="preserve">7</tspan>
        </text>
      </g>
      <g id="Graphic_97">
        <rect x="540" y="466.6442" width="19" height="25" fill="#c0c0ff"/>
        <rect x="540" y="466.6442" width="19" height="25" stroke="gray" stroke-linecap="round" stroke-linejoin="round" stroke-width="1"/>
        <text transform="translate(545 469.9202)" fill="black">
          <tspan font-family="Helvetica Neue" font-size="16" fill="black" x=".052" y="15" xml:space="preserve">0</tspan>
        </text>
      </g>
      <g id="Graphic_96">
        <rect x="559" y="466.6442" width="19" height="25" fill="#c0c0ff"/>
        <rect x="559" y="466.6442" width="19" height="25" stroke="gray" stroke-linecap="round" stroke-linejoin="round" stroke-width="1"/>
        <text transform="translate(564 469.9202)" fill="black">
          <tspan font-family="Helvetica Neue" font-size="16" fill="black" x=".052" y="15" xml:space="preserve">1</tspan>
        </text>
      </g>
      <g id="Graphic_95">
        <rect x="578" y="466.6442" width="19" height="25" fill="#c0c0ff"/>
        <rect x="578" y="466.6442" width="19" height="25" stroke="gray" stroke-linecap="round" stroke-linejoin="round" stroke-width="1"/>
        <text transform="translate(583 469.9202)" fill="black">
          <tspan font-family="Helvetica Neue" font-size="16" fill="black" x=".052" y="15" xml:space="preserve">2</tspan>
        </text>
      </g>
      <g id="Graphic_94">
        <rect x="597" y="466.6442" width="19" height="25" fill="#c0c0ff"/>
        <rect x="597" y="466.6442" width="19" height="25" stroke="gray" stroke-linecap="round" stroke-linejoin="round" stroke-width="1"/>
        <text transform="translate(602 469.9202)" fill="black">
          <tspan font-family="Helvetica Neue" font-size="16" fill="black" x=".052" y="15" xml:space="preserve">3</tspan>
        </text>
      </g>
      <g id="Graphic_105">
        <rect x="236" y="466.6442" width="152" height="25" stroke="#b1001c" stroke-linecap="round" stroke-linejoin="round" stroke-width="3"/>
      </g>
      <g id="Graphic_106">
        <rect x="388" y="466.6442" width="152" height="25" stroke="#b1001c" stroke-linecap="round" stroke-linejoin="round" stroke-width="3"/>
      </g>
      <g id="Graphic_113">
        <rect x="540" y="466.6442" width="152" height="25" stroke="#b1001c" stroke-linecap="round" stroke-linejoin="round" stroke-width="3"/>
      </g>
      <g id="Line_126">
        <path d="M 236 442 L 236 442 C 236 450.29954 242.7281 457.02765 251.02765 457.02765 L 297.5128 457.02765 C 302.45403 457.02765 306.91434 459.9881 308.83333 464.5415 L 308.83333 464.5415 C 309.5704 466.2904 311.58567 467.11064 313.33458 466.37357 C 314.16093 466.0253 314.8184 465.36783 315.16667 464.5415 L 315.16667 464.5415 C 317.08566 459.9881 321.54597 457.02765 326.4872 457.02765 L 372.97235 457.02765 C 381.2719 457.02765 388 450.29954 388 442 L 388 442" stroke="#a5a5a5" stroke-linecap="round" stroke-linejoin="round" stroke-width="3"/>
      </g>
      <g id="Line_127">
        <path d="M 389 442 L 389 442 C 389 450.29954 395.7281 457.02765 404.02765 457.02765 L 450.5128 457.02765 C 455.45403 457.02765 459.91434 459.9881 461.83333 464.5415 L 461.83333 464.5415 C 462.5704 466.2904 464.5857 467.11064 466.3346 466.37357 C 467.1609 466.0253 467.8184 465.36783 468.16667 464.5415 L 468.16667 464.5415 C 470.08566 459.9881 474.54597 457.02765 479.4872 457.02765 L 525.97235 457.02765 C 534.2719 457.02765 541 450.29954 541 442 L 541 442" stroke="#a5a5a5" stroke-linecap="round" stroke-linejoin="round" stroke-width="3"/>
      </g>
      <g id="Line_128">
        <path d="M 542 442.03426 L 542 442.03426 C 542 450.3338 548.7281 457.0619 557.02765 457.0619 L 568.2463 457.0619 C 572.7114 457.0619 576.5609 460.20176 577.4583 464.57574 L 577.4583 464.57574 C 577.633 465.4272 578.4649 465.9758 579.3163 465.8011 C 579.9331 465.67454 580.4151 465.19254 580.5417 464.57574 L 580.5417 464.57574 C 581.4391 460.20176 585.2886 457.0619 589.7537 457.0619 L 600.97235 457.0619 C 609.2719 457.0619 616 450.3338 616 442.03426 L 616 442.03426" stroke="#a5a5a5" stroke-linecap="round" stroke-linejoin="round" stroke-width="3"/>
      </g>
      <g id="Graphic_130">
        <title>span[0]</title>
        <text transform="translate(286.1421 496.6442)" fill="black">
          <tspan font-family="Helvetica Neue" font-size="16" fill="black" x="7887024e-19" y="15" xml:space="preserve">slice[0]</tspan>
        </text>
      </g>
      <g id="Graphic_131">
        <title>span[1]</title>
        <text transform="translate(440.264 496.6442)" fill="black">
          <tspan font-family="Helvetica Neue" font-size="16" fill="black" x="7887024e-19" y="15" xml:space="preserve">slice[1]</tspan>
        </text>
      </g>
      <g id="Graphic_132">
        <text transform="translate(591.264 496.6442)" fill="black">
          <tspan font-family="Helvetica Neue" font-size="16" fill="black" x="7887024e-19" y="15" xml:space="preserve">slice[2]</tspan>
        </text>
      </g>
      <g id="Graphic_139">
        <rect x="47.5" y="417" width="152" height="25" stroke="#14495e" stroke-linecap="round" stroke-linejoin="round" stroke-width="3"/>
      </g>
      <g id="Graphic_140">
        <rect x="199.5" y="417" width="152" height="25" stroke="#14495e" stroke-linecap="round" stroke-linejoin="round" stroke-width="3"/>
      </g>
      <g id="Graphic_141">
        <rect x="351.5" y="417" width="152" height="25" stroke="#14495e" stroke-linecap="round" stroke-linejoin="round" stroke-width="3"/>
      </g>
      <g id="Graphic_142">
        <rect x="503.5" y="417" width="152" height="25" stroke="#14495e" stroke-linecap="round" stroke-linejoin="round" stroke-width="3"/>
      </g>
      <g id="Graphic_143">
        <rect x="655.5" y="417" width="152" height="25" stroke="#14495e" stroke-linecap="round" stroke-linejoin="round" stroke-width="3"/>
      </g>
      <g id="Graphic_144">
        <text transform="translate(116.844 393.552)" fill="black">
          <tspan font-family="Helvetica Neue" font-size="16" fill="black" x="8597567e-19" y="15" xml:space="preserve">w[0]</tspan>
        </text>
      </g>
      <g id="Graphic_145">
        <text transform="translate(266.528 393.552)" fill="black">
          <tspan font-family="Helvetica Neue" font-size="16" fill="black" x="8597567e-19" y="15" xml:space="preserve">w[1]</tspan>
        </text>
      </g>
      <g id="Graphic_146">
        <text transform="translate(415.528 393.552)" fill="black">
          <tspan font-family="Helvetica Neue" font-size="16" fill="black" x="8597567e-19" y="15" xml:space="preserve">w[2]</tspan>
        </text>
      </g>
      <g id="Graphic_147">
        <text transform="translate(564.528 393.552)" fill="black">
          <tspan font-family="Helvetica Neue" font-size="16" fill="black" x="8597567e-19" y="15" xml:space="preserve">w[3]</tspan>
        </text>
      </g>
      <g id="Graphic_148">
        <text transform="translate(713.528 393.552)" fill="black">
          <tspan font-family="Helvetica Neue" font-size="16" fill="black" x="8597567e-19" y="15" xml:space="preserve">w[4]</tspan>
        </text>
      </g>
    </g>
  </g>
</svg>
